<?xml version="1.0" encoding="UTF-8"?>
<svg width="128" height="128" viewBox="0 0 128 128" xmlns="http://www.w3.org/2000/svg">
  <defs>
    <linearGradient id="bgGradient" x1="0" y1="0" x2="1" y2="1">
      <stop offset="0%" stop-color="#ffffff"/>
      <stop offset="100%" stop-color="#f97316"/>
    </linearGradient>
  </defs>

  <!-- Background with rounded corners -->
  <rect x="2" y="2" width="124" height="124" rx="22" fill="url(#bgGradient)"/>

  <!-- Concentric rings (4 white circles at 45% opacity) -->
  <circle cx="64" cy="64" r="50" fill="none" stroke="#ffffff" stroke-width="1.5" opacity="0.45"/>
  <circle cx="64" cy="64" r="42" fill="none" stroke="#ffffff" stroke-width="1.5" opacity="0.45"/>
  <circle cx="64" cy="64" r="34" fill="none" stroke="#ffffff" stroke-width="1.5" opacity="0.45"/>
  <circle cx="64" cy="64" r="26" fill="none" stroke="#ffffff" stroke-width="1.5" opacity="0.45"/>

  <!-- Spokes (6 navy lines from hub to outer nodes) -->
  <g stroke="#0b2447" stroke-width="3" stroke-linecap="round" fill="none">
    <line x1="64" y1="64" x2="64" y2="18"/>   <!-- Top: 0° -->
    <line x1="64" y1="64" x2="104" y2="42"/>  <!-- Top-right: 60° -->
    <line x1="64" y1="64" x2="104" y2="86"/>  <!-- Bottom-right: 120° -->
    <line x1="64" y1="64" x2="64" y2="110"/>  <!-- Bottom: 180° -->
    <line x1="64" y1="64" x2="24" y2="86"/>   <!-- Bottom-left: 240° -->
    <line x1="64" y1="64" x2="24" y2="42"/>   <!-- Top-left: 300° -->
  </g>

  <!-- Outer nodes (6 colored circles with navy stroke) -->
  <circle cx="64" cy="18" r="9" fill="#00b4d8" stroke="#0b2447" stroke-width="2"/>  <!-- Cyan -->
  <circle cx="104" cy="42" r="9" fill="#0077b6" stroke="#0b2447" stroke-width="2"/> <!-- Royal -->
  <circle cx="104" cy="86" r="9" fill="#9d4edd" stroke="#0b2447" stroke-width="2"/> <!-- Violet -->
  <circle cx="64" cy="110" r="9" fill="#2d6a4f" stroke="#0b2447" stroke-width="2"/> <!-- Forest -->
  <circle cx="24" cy="86" r="9" fill="#c9184a" stroke="#0b2447" stroke-width="2"/>  <!-- Crimson -->
  <circle cx="24" cy="42" r="9" fill="#ffd60a" stroke="#0b2447" stroke-width="2"/>  <!-- Gold -->

  <!-- Central hub (white with navy stroke) -->
  <circle cx="64" cy="64" r="15" fill="#ffffff" stroke="#0b2447" stroke-width="3"/>
</svg>
